<?xml version="1.0" encoding="UTF-8"?><svg id="Layer_2" xmlns="http://www.w3.org/2000/svg" xmlns:xlink="http://www.w3.org/1999/xlink" viewBox="0 0 245.5 245.5"><defs><style>.cls-1{fill:url(#linear-gradient);}.cls-2{fill:#ececed;}</style><linearGradient id="linear-gradient" x1="36" y1="209.6" x2="235.9" y2="9.7" gradientUnits="userSpaceOnUse"><stop offset=".2" stop-color="#00263e"/><stop offset=".3" stop-color="#002a40"/><stop offset=".5" stop-color="#033647"/><stop offset=".6" stop-color="#064a52"/><stop offset=".7" stop-color="#0c6763"/><stop offset=".9" stop-color="#138c78"/><stop offset="1" stop-color="#19ac8a"/></linearGradient></defs><path class="cls-1" d="m122.8,0C55,0,0,55,0,122.8s55,122.8,122.8,122.8,122.8-55,122.8-122.8S190.6,0,122.8,0Z"/><path class="cls-2" d="m199.6,147.4v-.4l-15.8-45.9h0c-.5-1.2-2.5-4.9-11.1-18.9-11.6-18.8-11.9-18.8-13.4-18.8h-73.3c-1.4,0-1.8,0-13.4,18.8-8.6,14.1-10.6,17.7-11.1,18.9h0s-15.7,45.6-15.7,45.6v.3c-.1,0-.1.4-.1.4,0,.3,0,1.3,0,1.6l5.2,31.9c.1,1.9,1.7,3.5,3.7,3.5h136.1c2,0,3.6-1.5,3.7-3.5l5.5-31.6v-.4c0-.5-.3-1.5-.3-1.6Zm-112.7-79.8h71.5c2.9,3.9,15.5,24.5,19.9,32.2h-25.8l-1.1-4.3c-.3-1.1-1.2-1.8-2.3-1.8h-52.3c-1.2,0-2.2.8-2.5,1.9l-1.1,4.2h-26.3c4.4-7.7,17.1-28.3,19.9-32.2Zm71.3,55c-.4.1-.8.2-1.3.3,0,0-.1,0-.2,0-.5,0-1,.1-1.5.1-2.9,0-5.5-1-5.8-2.2,0-.1,0-.3,0-.4,0,0,0,0,0-.1,0,0,0-.2.1-.2,0,0,0-.1.1-.2,0,0,.1-.1.2-.2,0,0,.1-.1.2-.2,0,0,0,0,.1,0,.5-.3,1.3-.6,2.2-.7h0c.5,0,1-.1,1.5-.1,2.8,0,5.4,1,5.8,2.2.2.7-.4,1.4-1.6,1.8Zm3.3,3.6c.4,1.2-1.7,2.2-4.8,2.2-3,0-5.7-1-6-2.2-.3-1.2,1.8-2.2,4.8-2.2,2.9,0,5.6,1,6,2.2Zm-7.8-8.6c-1.6,0-3.1-.3-4.2-.9h0c0,0-.2,0-.2-.1-.6-.4-1-.8-1.1-1.2-.3-1.2,1.6-2.2,4.3-2.2,2.7,0,5.1,1,5.5,2.2.4,1.2-1.5,2.2-4.3,2.2Zm-1.5-5.4c-2.6,0-5-.8-5.3-1.8-.3-1,1.5-1.8,4.1-1.8,2.5,0,4.9.8,5.3,1.8.4,1-1.4,1.8-4.1,1.8Zm-23.8,1c2.7,0,4.9,1,5.1,2.2,0,.5-.3,1-.9,1.3-.2.1-.4.2-.7.3,0,0,0,0-.1,0-.2,0-.5.2-.7.2,0,0-.1,0-.2,0-.2,0-.5,0-.8.1,0,0-.2,0-.3,0-.4,0-.7,0-1.1,0-.4,0-.7,0-1.1,0,0,0-.2,0-.2,0-.3,0-.6,0-.8-.1,0,0-.1,0-.2,0-.3,0-.5-.1-.8-.2,0,0,0,0,0,0-.3-.1-.5-.2-.7-.3-.7-.4-1.1-.8-1.1-1.4,0-1.2,2.1-2.2,4.8-2.2Zm-4.9-2.8c0-1,2-1.8,4.6-1.8,2.5,0,4.7.8,4.8,1.8.1,1-1.9,1.8-4.6,1.8-2.6,0-4.8-.8-4.8-1.8Zm5.2,8.2c2.8,0,5.2,1,5.3,2.2.1,1.2-2.1,2.2-5,2.2-2.9,0-5.3-1-5.3-2.2,0-1.2,2.2-2.2,5-2.2Zm.3,5.4c2.9,0,5.4,1,5.5,2.2.1,1.2-2.2,2.2-5.3,2.2-3,0-5.5-1-5.5-2.2,0-1.2,2.3-2.2,5.3-2.2Zm-35.1-17.8l1.1-4.3h55.9l1,4.2h-58Zm22,16.8c-2.9,0-5.2-1-5.1-2.2.1-1.2,2.5-2.2,5.3-2.2,2.8,0,5.1,1,5.1,2.2,0,1.2-2.4,2.2-5.3,2.2Zm5.2,3.2c0,1.2-2.5,2.2-5.5,2.2-3,0-5.4-1-5.3-2.2.1-1.2,2.6-2.2,5.5-2.2,2.9,0,5.3,1,5.3,2.2Zm-1.1-9.4h0c-.2.1-.5.2-.8.3,0,0,0,0,0,0-.3,0-.5.2-.8.2,0,0,0,0-.1,0-.3,0-.5,0-.8.1,0,0-.1,0-.2,0-.4,0-.7,0-1.1,0-.4,0-.7,0-1.1,0,0,0-.1,0-.2,0-.3,0-.6,0-.8-.1,0,0,0,0-.1,0-.3,0-.6-.1-.8-.2,0,0,0,0,0,0-.3,0-.5-.2-.7-.3-.7-.4-1.1-.9-1.1-1.4.1-1.2,2.4-2.2,5-2.2,2.7,0,4.8,1,4.8,2.2,0,.5-.4,1-1.2,1.4Zm-3.6-4.6c-2.6,0-4.7-.8-4.6-1.8.1-1,2.3-1.8,4.8-1.8,2.5,0,4.6.8,4.6,1.8,0,1-2.2,1.8-4.8,1.8Zm-26.8,10.8c-.3,0-.6,0-1,0-.2,0-.3,0-.5,0-.1,0-.2,0-.3,0-.2,0-.4,0-.6-.1,0,0,0,0,0,0-.2,0-.4-.1-.6-.2h0c-1.1-.4-1.7-1-1.4-1.7.4-1.2,3-2.2,5.8-2.2.4,0,.9,0,1.2,0,.7,0,1.4.3,1.9.5,0,0,0,0,.1,0,.1,0,.2.1.3.2,0,0,.1,0,.2.1,0,0,.2.1.2.2,0,0,.1.1.2.2,0,0,0,.1.1.2,0,0,0,.2.1.2,0,0,0,0,0,.1,0,.1,0,.3,0,.4-.3,1.2-2.9,2.2-5.8,2.2Zm4.5,3.2c-.3,1.2-3,2.2-6,2.2-3,0-5.2-1-4.8-2.2.4-1.2,3.1-2.2,6-2.2,2.9,0,5.1,1,4.8,2.2Zm.7-9.3h0c-.2,0-.4.1-.6.2h0c-.9.3-2,.5-3.2.5-2.8,0-4.7-1-4.3-2.2.4-1.2,2.9-2.2,5.5-2.2,2.7,0,4.6,1,4.3,2.2-.1.6-.8,1.1-1.8,1.5Zm-2.3-4.7c-2.6,0-4.5-.8-4.1-1.8.4-1,2.7-1.8,5.3-1.8,2.5,0,4.4.8,4.1,1.8-.3,1-2.6,1.8-5.3,1.8Zm4.3,14c.2-1.2,2.8-2.2,5.8-2.2s5.2,1,5,2.2c-.1,1.2-2.7,2.2-5.8,2.2-3,0-5.3-1-5-2.2Zm5.9-3.2c-2.9,0-5.1-1-4.8-2.2.2-1.2,2.7-2.2,5.5-2.2,2.8,0,4.9,1,4.8,2.2-.1,1.2-2.6,2.2-5.5,2.2Zm4.7-6.2h0c-.5.2-1,.4-1.7.5,0,0,0,0,0,0-.3,0-.6,0-.9.1,0,0-.1,0-.2,0-.3,0-.7,0-1.1,0-.4,0-.7,0-1,0,0,0,0,0-.1,0-.3,0-.6,0-.8-.1,0,0,0,0,0,0-.6-.1-1.1-.3-1.5-.5-.8-.4-1.2-.9-1.1-1.5.2-1.2,2.6-2.2,5.3-2.2,2.7,0,4.7,1,4.6,2.2,0,.6-.6,1.1-1.5,1.5Zm-3-4.7c-2.6,0-4.6-.8-4.3-1.8s2.5-1.8,5-1.8c2.5,0,4.5.8,4.3,1.8-.1,1-2.4,1.8-5,1.8Zm35.1-3.7c2.5,0,4.8.8,5.1,1.8.3,1-1.7,1.8-4.3,1.8-2.6,0-4.9-.8-5.1-1.8-.2-1,1.8-1.8,4.3-1.8Zm.9,4.6c2.7,0,5,1,5.3,2.2,0,.5-.1.9-.6,1.3-.2.1-.4.3-.6.4,0,0-.1,0-.2,0-.2,0-.4.1-.6.2,0,0-.2,0-.3,0-.2,0-.5,0-.7.1-.1,0-.2,0-.3,0-.4,0-.7,0-1.1,0-.4,0-.8,0-1.1,0-.1,0-.2,0-.3,0-.3,0-.5,0-.8-.1,0,0-.2,0-.3,0-.3,0-.5-.1-.8-.2,0,0-.1,0-.2,0-.3-.1-.5-.2-.8-.4-.6-.4-1.1-.8-1.1-1.3-.2-1.2,1.9-2.2,4.5-2.2Zm.9,5.4c2.8,0,5.3,1,5.5,2.2.3,1.2-1.9,2.2-4.8,2.2-2.9,0-5.4-1-5.5-2.2-.2-1.2,2-2.2,4.8-2.2Zm.9,5.4c2.9,0,5.5,1,5.8,2.2.3,1.2-2,2.2-5,2.2-3,0-5.6-1-5.8-2.2-.2-1.2,2.1-2.2,5-2.2Zm-76.8-21.4h0c0-.2.2-.4.3-.7h27l-1.1,4.3h-1c-3.1,0-6.1,1.3-6.7,2.8l-7,19.4c0,.2,0,.4,0,.6h0v7.7c0,2.3,3.4,4.2,7.4,4.2h75.5c4.7,0,8-1.8,8-4.1v-7.8h0c0-.3,0-.5,0-.7l-7.2-19.5c-.6-1.5-3.5-2.7-6.5-2.8l-1-4.2h26.5c.1.2.2.5.3.6l15.3,44.4H50.2s15.2-44.3,15.2-44.3Zm124.8,77.7H55.1l-4.8-29.1h145.1l-5.1,29.1Z"/><path class="cls-2" d="m90.1,73c-.5-.3-1.1,0-1.4.5l-4.1,8.4c-.3.5,0,1.1.5,1.4.1,0,.3.1.5.1.4,0,.8-.2.9-.6l4.1-8.4c.3-.5,0-1.1-.5-1.4Z"/><path class="cls-2" d="m87,125.7c-.3,0-.5,0-.8,0-.7,0-1.3.2-1.4.5,0,.3.4.5,1.1.5.3,0,.5,0,.8,0,.9-.1,3-.2,3.8,0,.3,0,.5,0,.8,0,.7,0,1.3-.2,1.4-.5s-.4-.5-1.1-.5-.6,0-.8,0c-.9.1-2.9.2-3.7,0Zm-1,.8c-.5,0-.9-.2-.8-.4,0-.2.5-.4,1-.4.5,0,.9.2.8.4s-.5.4-1,.4Zm5.6-.8c.5,0,.9.2.8.4,0,.2-.5.4-1,.4-.5,0-.9-.2-.8-.4s.5-.4,1-.4Z"/><path class="cls-2" d="m86.1,126h0c-.2,0-.4,0-.4.1h0c0,0,.1.2.3.2h0c.2,0,.4,0,.4-.1h0c0,0-.1-.2-.3-.2Z"/><path class="cls-2" d="m92.9,120.2c-.3,0-.5,0-.8,0-.9.1-2.8.2-3.6,0-.2,0-.4,0-.7,0-.6,0-1.2.2-1.3.5,0,.3.4.5,1,.5.3,0,.5,0,.8,0,.9-.1,2.8-.2,3.6,0,.2,0,.5,0,.8,0,.7,0,1.2-.2,1.3-.5,0-.3-.4-.5-1.1-.5Zm-5.4.9c-.5,0-.8-.2-.8-.4,0-.2.5-.4,1-.4.5,0,.8.2.8.4,0,.2-.5.4-1,.4Zm5.2,0c-.5,0-.8-.2-.8-.4s.5-.4,1-.4c.5,0,.8.2.8.4,0,.2-.5.4-1,.4Z"/><path class="cls-2" d="m87.7,120.6h0c-.2,0-.4,0-.4.1h0c0,0,.1.2.3.2h0c.2,0,.4,0,.4-.1h0c0,0-.1-.2-.3-.2Z"/><path class="cls-2" d="m94.2,114.9c-.3,0-.5,0-.8,0-.8.1-2.7.2-3.4,0-.2,0-.4,0-.7,0-.6,0-1.2.2-1.3.5,0,.3.4.5,1,.5.3,0,.5,0,.8,0,.8-.1,2.7-.2,3.4,0,.2,0,.4,0,.7,0,.6,0,1.2-.2,1.2-.5s-.4-.5-1-.5Zm-5.1.9c-.5,0-.8-.2-.7-.4,0-.2.5-.4,1-.4.5,0,.8.2.7.4,0,.2-.5.4-1,.4Zm4.9,0c-.5,0-.8-.2-.8-.4,0-.2.5-.4.9-.4.5,0,.8.2.8.4s-.5.4-.9.4Z"/><path class="cls-2" d="m89.2,115.2h0c-.2,0-.4,0-.4.1h0c0,0,.1.2.3.2h0c.2,0,.4,0,.4-.1h0c0,0-.1-.2-.3-.2Z"/><path class="cls-2" d="m95.6,109.9c-.3,0-.5,0-.7,0-.8.1-2.5.1-3.2,0-.2,0-.4,0-.7,0-.6,0-1.1.2-1.2.4,0,.2.3.4.9.4.3,0,.5,0,.7,0,.8-.1,2.6-.1,3.3,0,.2,0,.4,0,.7,0,.6,0,1.1-.2,1.2-.4,0-.2-.4-.4-.9-.4Zm-4.9.7c-.4,0-.8-.1-.7-.3,0-.2.5-.3.9-.3.4,0,.8.1.7.3,0,.2-.5.3-.9.3Zm4.7,0c-.4,0-.8-.1-.7-.3s.5-.3.9-.3c.4,0,.8.1.7.3,0,.2-.5.3-.9.3Z"/><path class="cls-2" d="m90.8,110.2h0c-.2,0-.3,0-.4.1h0c0,0,0,.1.3.1h0c.2,0,.3,0,.4-.1h0c0,0,0-.1-.3-.1Z"/><path class="cls-2" d="m99.4,126.6c.3,0,.5,0,.8,0,.9-.1,2.9-.2,3.8,0,.3,0,.5,0,.8,0,.7,0,1.3-.2,1.3-.5,0-.3-.5-.5-1.2-.5s-.5,0-.8,0c-.9.1-2.9.2-3.7,0-.3,0-.5,0-.8,0-.7,0-1.3.2-1.3.5,0,.3.5.5,1.1.5Zm5.5-.9c.5,0,.9.2.9.4,0,.2-.5.4-1,.4-.5,0-.9-.2-.9-.4,0-.2.5-.4,1-.4Zm-5.4,0c.5,0,.9.2.9.4,0,.2-.5.4-1,.4-.5,0-.9-.2-.9-.4,0-.2.5-.4,1-.4Z"/><path class="cls-2" d="m99.4,126.3h0c.2,0,.4,0,.4-.1h0c0,0-.1-.2-.3-.2h0c-.2,0-.4,0-.4.1h0c0,0,.1.2.3.2Z"/><path class="cls-2" d="m105.7,120.2c-.3,0-.5,0-.8,0-.9.1-2.8.2-3.6,0-.2,0-.5,0-.8,0-.6,0-1.2.2-1.3.5s.4.5,1.1.5c.3,0,.5,0,.8,0,.9-.1,2.8-.2,3.6,0,.2,0,.5,0,.8,0,.7,0,1.2-.2,1.2-.5,0-.3-.5-.5-1.1-.5Zm-5.3.9c-.5,0-.9-.2-.8-.4,0-.2.5-.4,1-.4.5,0,.9.2.8.4s-.5.4-1,.4Zm5.2,0c-.5,0-.9-.2-.8-.4,0-.2.5-.4.9-.4.5,0,.9.2.8.4,0,.2-.4.4-.9.4Z"/><path class="cls-2" d="m100.5,120.6h0c-.2,0-.4,0-.4.1h0c0,0,.1.2.3.2h0c.2,0,.4,0,.4-.1h0c0,0-.1-.2-.3-.2Z"/><path class="cls-2" d="m106.4,114.9c-.3,0-.5,0-.8,0-.8.1-2.7.2-3.4,0-.2,0-.4,0-.7,0-.6,0-1.2.2-1.2.5,0,.3.4.5,1,.5.3,0,.5,0,.8,0,.8-.1,2.7-.2,3.4,0,.2,0,.4,0,.7,0,.6,0,1.2-.2,1.2-.5,0-.3-.4-.5-1.1-.5Zm-5,.9c-.5,0-.8-.2-.8-.4,0-.2.5-.4.9-.4.5,0,.8.2.8.4s-.4.4-.9.4Zm4.9,0c-.5,0-.8-.2-.8-.4,0-.2.4-.4.9-.4.5,0,.8.2.8.4,0,.2-.4.4-.9.4Z"/><path class="cls-2" d="m101.5,115.2h0c-.2,0-.3,0-.4.1h0c0,0,.1.2.3.2h0c.2,0,.3,0,.4-.1h0c0,0-.1-.2-.3-.2Z"/><path class="cls-2" d="m107.2,109.9c-.3,0-.5,0-.7,0-.8.1-2.5.1-3.2,0-.2,0-.4,0-.7,0-.6,0-1.1.2-1.2.4,0,.2.4.4,1,.4.3,0,.5,0,.7,0,.8-.1,2.6-.1,3.3,0,.2,0,.4,0,.7,0,.6,0,1.1-.2,1.1-.4,0-.2-.4-.4-1-.4Zm-4.8.7c-.4,0-.8-.1-.7-.3,0-.2.4-.3.9-.3.4,0,.8.1.7.3,0,.2-.4.3-.9.3Zm4.7,0c-.4,0-.8-.1-.8-.3,0-.2.4-.3.9-.3.4,0,.8.1.8.3,0,.2-.4.3-.9.3Z"/><path class="cls-2" d="m102.5,110.2h0c-.2,0-.3,0-.3.1h0c0,0,.1.1.3.1h0c.2,0,.3,0,.3-.1h0c0,0-.1-.1-.3-.1Z"/><path class="cls-2" d="m118.4,125.6c-.3,0-.5,0-.8,0-.9.1-2.9.2-3.7,0-.3,0-.5,0-.8,0-.7,0-1.2.2-1.3.5s.5.5,1.2.5.5,0,.8,0c.9-.1,2.9-.2,3.8,0,.3,0,.5,0,.8,0,.7,0,1.2-.2,1.2-.5,0-.3-.5-.5-1.2-.5Zm-5.4.9c-.5,0-.9-.2-.9-.4,0-.2.4-.4,1-.4.5,0,.9.2.9.4,0,.2-.4.4-1,.4Zm5.4,0c-.5,0-.9-.2-.9-.4,0-.2.4-.4.9-.4.5,0,.9.2.9.4,0,.2-.4.4-.9.4Z"/><path class="cls-2" d="m113,126h0c-.2,0-.4,0-.4.1h0c0,0,.2.2.4.2h0c.2,0,.4,0,.4-.1h0c0,0-.2-.2-.4-.2Z"/><path class="cls-2" d="m118.5,120.2c-.3,0-.5,0-.8,0-.8.1-2.8.2-3.6,0-.2,0-.5,0-.8,0-.6,0-1.2.2-1.2.5,0,.3.5.5,1.1.5.3,0,.5,0,.8,0,.9-.1,2.8-.2,3.6,0,.3,0,.5,0,.8,0,.7,0,1.2-.2,1.2-.5,0-.3-.5-.5-1.2-.5Zm-5.2.9c-.5,0-.9-.2-.9-.4,0-.2.4-.4.9-.4.5,0,.9.2.9.4,0,.2-.4.4-.9.4Zm5.2,0c-.5,0-.9-.2-.9-.4,0-.2.4-.4.9-.4.5,0,.9.2.9.4s-.4.4-.9.4Z"/><path class="cls-2" d="m113.4,120.6h0c-.2,0-.4,0-.4.1h0c0,0,.1.2.3.2h0c.2,0,.4,0,.4-.1h0c0,0-.1-.2-.3-.2Z"/><path class="cls-2" d="m118.7,114.8c-.3,0-.5,0-.7,0-.8.1-2.6.2-3.4,0-.2,0-.4,0-.7,0-.6,0-1.1.2-1.2.5,0,.3.5.5,1.1.5.3,0,.5,0,.7,0,.8-.1,2.7-.2,3.4,0,.2,0,.5,0,.7,0,.6,0,1.1-.2,1.1-.5,0-.3-.5-.5-1.1-.5Zm-4.9.9c-.5,0-.8-.2-.8-.4,0-.2.4-.4.9-.4.5,0,.8.2.8.4s-.4.4-.9.4Zm4.9,0c-.5,0-.8-.2-.8-.4,0-.2.4-.4.9-.4.5,0,.8.2.8.4s-.4.4-.9.4Z"/><path class="cls-2" d="m113.8,115.2h0c-.2,0-.3,0-.3.2h0c0,0,.1.2.3.2h0c.2,0,.3,0,.3-.1h0c0,0-.1-.2-.3-.2Z"/><path class="cls-2" d="m118.8,109.9c-.3,0-.5,0-.7,0-.8.1-2.5.1-3.2,0-.2,0-.4,0-.7,0-.6,0-1.1.2-1.1.4s.4.4,1,.4c.3,0,.5,0,.7,0,.8-.1,2.5-.1,3.3,0,.2,0,.4,0,.7,0,.6,0,1.1-.2,1.1-.4,0-.2-.5-.4-1.1-.4Zm-4.7.7c-.4,0-.8-.1-.8-.3,0-.2.4-.3.8-.3.4,0,.8.1.8.3,0,.2-.4.3-.8.3Zm4.7,0c-.4,0-.8-.1-.8-.3,0-.2.4-.3.8-.3.4,0,.8.1.8.3,0,.2-.4.3-.8.3Z"/><path class="cls-2" d="m114.2,110.2h0c-.2,0-.3,0-.3.1h0c0,0,.1.1.3.1h0c.2,0,.3,0,.3-.1h0c0,0-.1-.1-.3-.1Z"/><path class="cls-2" d="m126.6,126.6c.3,0,.5,0,.8,0,.9-.1,2.9-.2,3.8,0,.3,0,.5,0,.8,0,.7,0,1.2-.2,1.2-.5,0-.3-.6-.5-1.3-.5-.3,0-.5,0-.8,0-.9.1-2.9.2-3.7,0-.3,0-.5,0-.8,0-.7,0-1.2.2-1.2.5s.6.5,1.3.5Zm5.3-.9c.5,0,.9.2,1,.4,0,.2-.4.4-.9.4s-.9-.2-1-.4c0-.2.4-.4.9-.4Zm-5.4,0c.5,0,.9.2.9.4,0,.2-.4.4-.9.4-.5,0-.9-.2-.9-.4,0-.2.4-.4.9-.4Z"/><path class="cls-2" d="m126.5,126.3h0c.2,0,.4,0,.4-.1h0c0,0-.2-.2-.4-.2h0c-.2,0-.4,0-.4.1h0c0,0,.2.2.4.2Z"/><path class="cls-2" d="m126.3,121.2c.3,0,.5,0,.8,0,.8-.1,2.8-.2,3.6,0,.3,0,.5,0,.8,0,.7,0,1.2-.2,1.1-.5,0-.3-.6-.5-1.2-.5-.3,0-.5,0-.8,0-.8.1-2.7.2-3.6,0-.3,0-.5,0-.8,0-.6,0-1.2.2-1.2.5,0,.3.5.5,1.2.5Zm5.1-.9c.5,0,.9.2.9.4,0,.2-.4.4-.9.4-.5,0-.9-.2-.9-.4,0-.2.4-.4.9-.4Zm-5.1,0c.5,0,.9.2.9.4,0,.2-.4.4-.9.4-.5,0-.9-.2-.9-.4,0-.2.4-.4.9-.4Z"/><path class="cls-2" d="m126.3,120.9h0c.2,0,.3,0,.3-.2h0c0,0-.2-.2-.4-.2h0c-.2,0-.3,0-.3.1h0c0,0,.2.2.4.2Z"/><path class="cls-2" d="m126.1,115.9c.3,0,.5,0,.7,0,.8-.1,2.6-.2,3.4,0,.2,0,.5,0,.7,0,.6,0,1.1-.2,1.1-.5,0-.3-.5-.5-1.2-.5-.3,0-.5,0-.7,0-.8.1-2.6.2-3.4,0-.2,0-.5,0-.7,0-.6,0-1.1.2-1.1.5,0,.3.5.5,1.1.5Zm4.9-.9c.5,0,.9.2.9.4,0,.2-.3.4-.8.4-.5,0-.9-.2-.9-.4,0-.2.4-.4.8-.4Zm-4.9,0c.5,0,.9.2.9.4,0,.2-.4.4-.8.4-.5,0-.9-.2-.9-.4,0-.2.4-.4.8-.4Z"/><path class="cls-2" d="m126.1,115.5h0c.2,0,.3,0,.3-.1h0c0,0-.2-.2-.3-.2h0c-.2,0-.3,0-.3.2h0c0,0,.2.2.3.2Z"/><path class="cls-2" d="m130.6,110.7c.6,0,1.1-.2,1-.4,0-.2-.5-.4-1.1-.4-.3,0-.5,0-.7,0-.7.1-2.5.1-3.2,0-.2,0-.4,0-.7,0-.6,0-1.1.2-1,.4,0,.2.5.4,1.1.4.3,0,.5,0,.7,0,.8-.1,2.5-.1,3.3,0,.2,0,.4,0,.7,0Zm-4.7,0c-.4,0-.8-.1-.8-.3s.3-.3.8-.3c.4,0,.8.1.8.3,0,.2-.3.3-.8.3Zm3.8-.3c0-.2.3-.3.8-.3.4,0,.8.1.8.3,0,.2-.3.3-.8.3s-.8-.1-.8-.3Z"/><path class="cls-2" d="m125.9,110.2h0c-.2,0-.3,0-.3.1h0c0,0,.1.1.3.1h0c.2,0,.3,0,.3-.1h0c0,0-.1-.1-.3-.1Z"/><path class="cls-2" d="m153.3,125.6c-.7,0-1.2.2-1.1.5,0,.3.7.5,1.4.5s.5,0,.8,0c.8-.1,2.9-.2,3.8,0,.3,0,.5,0,.8,0,.7,0,1.2-.2,1.1-.5,0-.3-.7-.5-1.4-.5-.3,0-.5,0-.8,0-.8.1-2.8.2-3.7,0-.3,0-.5,0-.8,0Zm5.4.1c.5,0,1,.2,1,.4,0,.2-.3.4-.8.4-.5,0-1-.2-1-.4,0-.2.3-.4.8-.4Zm-4.3.4c0,.2-.3.4-.8.4s-1-.2-1-.4c0-.2.3-.4.8-.4.5,0,1,.2,1,.4Z"/><path class="cls-2" d="m153,126.1h0c0,0,.2.2.4.2h0c.2,0,.3,0,.3-.2h0c0,0-.2-.2-.4-.2h0c-.2,0-.3,0-.3.1Z"/><path class="cls-2" d="m157,120.2c-.3,0-.5,0-.7,0-.8.1-2.7.2-3.6,0-.3,0-.5,0-.8,0-.6,0-1.1.2-1,.5,0,.3.7.5,1.3.5.3,0,.5,0,.8,0,.8-.1,2.7-.2,3.6,0,.3,0,.5,0,.8,0,.7,0,1.1-.2,1-.5,0-.3-.7-.5-1.3-.5Zm-4.9.9c-.5,0-.9-.2-1-.4,0-.2.3-.4.8-.4.5,0,.9.2,1,.4,0,.2-.3.4-.8.4Zm5.2,0c-.5,0-.9-.2-1-.4,0-.2.3-.4.8-.4.5,0,.9.2,1,.4,0,.2-.3.4-.8.4Z"/><path class="cls-2" d="m152,120.6h0c-.2,0-.3,0-.3.1h0c0,0,.2.2.4.2h0c.2,0,.3,0,.3-.1h0c0,0-.2-.2-.4-.2Z"/><path class="cls-2" d="m155.4,114.8c-.3,0-.5,0-.7,0-.8.1-2.6.2-3.4,0-.3,0-.5,0-.8,0-.6,0-1.1.2-1,.5,0,.3.6.5,1.3.5.3,0,.5,0,.7,0,.8-.1,2.6-.2,3.4,0,.3,0,.5,0,.8,0,.6,0,1.1-.2,1-.5,0-.3-.7-.5-1.3-.5Zm-4.7.9c-.5,0-.9-.2-.9-.4,0-.2.3-.4.8-.4.5,0,.9.2.9.4,0,.2-.3.4-.8.4Zm4.9,0c-.5,0-.9-.2-1-.4s.3-.4.7-.4c.5,0,.9.2,1,.4,0,.2-.3.4-.7.4Z"/><path class="cls-2" d="m150.6,115.2h0c-.2,0-.3,0-.3.2h0c0,0,.2.2.4.2h0c.2,0,.3,0,.3-.2h0c0,0-.2-.2-.4-.2Z"/><path class="cls-2" d="m153.7,109.9c-.3,0-.5,0-.7,0-.7.1-2.5.1-3.2,0-.2,0-.5,0-.7,0-.6,0-1,.2-.9.4,0,.2.6.4,1.2.4.3,0,.5,0,.7,0,.7-.1,2.5-.1,3.3,0,.2,0,.5,0,.7,0,.6,0,1-.2.9-.4,0-.2-.6-.4-1.2-.4Zm-4.4.7c-.4,0-.9-.1-.9-.3,0-.2.3-.3.7-.3.4,0,.9.1.9.3,0,.2-.3.3-.7.3Zm4.7,0c-.4,0-.9-.1-.9-.3s.2-.3.7-.3c.4,0,.9.1.9.3,0,.2-.2.3-.7.3Z"/><path class="cls-2" d="m149.2,110.2h0c-.2,0-.3,0-.3.1h0c0,0,.2.1.4.1h0c.2,0,.3,0,.3-.1h0c0,0-.2-.1-.4-.1Z"/><path class="cls-2" d="m140.1,126.6c.3,0,.5,0,.8,0,.9-.1,2.9-.2,3.8,0,.3,0,.5,0,.8,0,.7,0,1.2-.2,1.1-.5,0-.3-.7-.5-1.3-.5-.3,0-.5,0-.8,0-.8.1-2.9.2-3.7,0-.3,0-.5,0-.8,0-.7,0-1.2.2-1.2.5,0,.3.6.5,1.3.5Zm5.2-.9c.5,0,1,.2,1,.4,0,.2-.3.4-.9.4-.5,0-1-.2-1-.4,0-.2.3-.4.9-.4Zm-5.4,0c.5,0,1,.2,1,.4,0,.2-.4.4-.9.4-.5,0-1-.2-1-.4,0-.2.4-.4.9-.4Z"/><path class="cls-2" d="m140,126.3h0c.2,0,.4,0,.3-.1h0c0,0-.2-.2-.4-.2h0c-.2,0-.4,0-.3.1h0c0,0,.2.2.4.2Z"/><path class="cls-2" d="m139.3,121.2c.3,0,.5,0,.8,0,.8-.1,2.8-.2,3.6,0,.3,0,.5,0,.8,0,.7,0,1.1-.2,1.1-.5,0-.3-.6-.5-1.3-.5-.3,0-.5,0-.8,0-.8.1-2.7.2-3.6,0-.3,0-.5,0-.8,0-.6,0-1.1.2-1.1.5,0,.3.6.5,1.3.5Zm5-.9c.5,0,.9.2,1,.4,0,.2-.3.4-.8.4-.5,0-.9-.2-1-.4,0-.2.3-.4.8-.4Zm-5.1,0c.5,0,.9.2.9.4,0,.2-.3.4-.8.4-.5,0-.9-.2-.9-.4,0-.2.3-.4.8-.4Z"/><path class="cls-2" d="m139.2,120.9h0c.2,0,.3,0,.3-.1h0c0,0-.2-.2-.4-.2h0c-.2,0-.3,0-.3.1h0c0,0,.2.2.4.2Z"/><path class="cls-2" d="m138.5,115.8c.3,0,.5,0,.7,0,.8-.1,2.6-.2,3.4,0,.3,0,.5,0,.8,0,.6,0,1.1-.2,1-.5,0-.3-.6-.5-1.2-.5-.3,0-.5,0-.7,0-.8.1-2.6.2-3.4,0-.2,0-.5,0-.8,0-.6,0-1.1.2-1,.5,0,.3.6.5,1.2.5Zm4.8-.9c.5,0,.9.2.9.4,0,.2-.3.4-.8.4-.5,0-.9-.2-.9-.4,0-.2.3-.4.8-.4Zm-4.9,0c.5,0,.9.2.9.4,0,.2-.3.4-.8.4-.5,0-.9-.2-.9-.4,0-.2.3-.4.8-.4Z"/><path class="cls-2" d="m138.4,115.5h0c.2,0,.3,0,.3-.2h0c0,0-.2-.2-.4-.2h0c-.2,0-.3,0-.3.2h0c0,0,.2.2.4.2Z"/><path class="cls-2" d="m137.7,110.7c.3,0,.5,0,.7,0,.7-.1,2.5-.1,3.3,0,.2,0,.4,0,.7,0,.6,0,1-.2,1-.4s-.6-.4-1.2-.4c-.3,0-.5,0-.7,0-.7.1-2.5.1-3.2,0-.2,0-.4,0-.7,0-.6,0-1,.2-1,.4,0,.2.6.4,1.1.4Zm4.5-.7c.4,0,.8.1.9.3,0,.2-.3.3-.7.3-.4,0-.8-.1-.9-.3,0-.2.3-.3.7-.3Zm-4.6,0c.4,0,.8.1.9.3,0,.2-.3.3-.8.3-.4,0-.8-.1-.9-.3,0-.2.3-.3.8-.3Z"/><path class="cls-2" d="m137.6,110.4h0c.2,0,.3,0,.3-.1h0c0,0-.2-.1-.3-.1h0c-.2,0-.3,0-.3.1h0c0,0,.2.1.3.1Z"/></svg>