<?xml version="1.0" encoding="UTF-8"?><svg id="Layer_2" xmlns="http://www.w3.org/2000/svg" viewBox="0 0 245.5 245.5"><defs><style>.cls-1{fill:rgb(100, 100, 100);}.cls-2{fill:rgb(167, 168, 169);}</style></defs><path class="cls-1" d="m122.8,0C55,0,0,55,0,122.8s55,122.8,122.8,122.8,122.8-55,122.8-122.8S190.6,0,122.8,0Z"/><path class="cls-2" d="m58.5,164.3h128.6c3.8,0,6.9-3.1,6.9-6.9v-84.8c0-3.8-3.1-6.9-6.9-6.9H58.5c-3.8,0-6.9,3.1-6.9,6.9v84.8c0,3.8,3.1,6.9,6.9,6.9Zm-1.8-91.7c0-1,.8-1.8,1.8-1.8h128.6c1,0,1.8.8,1.8,1.8v84.8c0,1-.8,1.8-1.8,1.8H58.5c-1,0-1.8-.8-1.8-1.8v-84.8Z"/><path class="cls-2" d="m192.5,167.3H52.7c-.6,0-10.3,6.9-10.5,7.1h160.8c-.3-.3-10.1-7.1-10.5-7.1Z"/><path class="cls-2" d="m203.6,176.9H41.8s0,0,0,0c0,0,0,1.3,0,2.7s1.2,2.7,2.6,2.7h156.6c1.4,0,2.6-1.2,2.6-2.7s0-2.6,0-2.7Z"/><path class="cls-2" d="m62.7,133.6h2.2c0,.1.2.2.2.3.5.8,1.4,2.1,2.9,1.9,1.2-.1,1.9-1.2,2.5-2.1.1-.2.2-.4.4-.6,1.1.7,1.5.8,3.2.9.9,0,1.4,0,1.8,0,0,0,.1,0,.2,0,0,0,0,0,.2,0,0,0,.3.3.4.4.4.5,1.3,1.7,2.8,1.1.9-.4,1.2-1.1,1.4-1.6,0,0,0,0,0-.1.5-.1.9-.3,1.2-.5,0,0,0,0,0,0,1.8,0,2-1.1,4.4-32.2.3,1.1.5,2.4.7,3.9.5,3.8.8,7.3,1.2,10.3.3,2.6.6,4.9.8,6.9,0,.6.1,1.1.2,1.7.6,5.4,1,9,3.6,9h4.8c.1.1.2.3.3.4.4.6,1,1.3,1.8,1.7,1.9.8,4.5-.8,4.5-.8.3-.2.5-.5.8-.8.1-.1.3-.4.4-.5h2.9c.3.2.9.8,1.3,1.3,0,0,0,.1.1.2,1.6,1.5,2.5,1.4,3,1.2,0,0,.2,0,.2,0,.4,0,.9,0,1.4-.4.4-.3.7-.6.9-1h2c1.6,0,1.7-1.1,2.1-4.2.2-1.7.4-4.1.7-6.9.5-5.5,1.1-12.3,1.6-17.7.1-1.4.2-2.7.4-4,.2.7.3,1.4.4,2.2.9,6,2.2,16.4,2.7,20.4l.2,1.5c.4,4.3.8,7.3,3.5,7.3h2.8s0,0,0,0c.3.9,1,3,2.9,2.8,1.3-.1,2.4-1.1,3-1.9h2.8c.4-.1.8-.3,1.1-.5.1,0,.2-.2.3-.3.4.2,1,.7,1.5,1.2,1.4,1.5,2.4,1.7,2.9,1.7s.2,0,.3,0c1-.1,1.6-.9,2.2-1.6,0,0,.1-.2.2-.2h4.7c2,0,3,0,5.5-31.5,0,.4.1.8.2,1.2.9,6,1.5,10.7,1.8,14.3v.4c.5,5.2,1,10.2,1.6,11.9.7,2.1,3.5,4.1,5.2,4.1s2.3-.4,3.1-.6c.3,0,.7-.2.8-.2,2.4,0,3,.2,3.1.2,0,0,.3.2.5.4.8.6,2,1.5,3.4,1.1.6-.2,1.2-.5,1.7-.8.3-.2.8-.4.9-.5.9,0,1.6-.7,1.6-1.6s-.7-1.6-1.6-1.6-1.8.5-2.6.9c-.2.1-.5.3-.7.4-.2-.1-.6-.4-.8-.5-.3-.2-.6-.5-1-.7-.8-.4-2.1-.6-4.6-.6s-1.2.2-1.8.4c-.6.2-1.3.4-2,.5-.6-.2-1.9-1.1-2.2-1.9-.5-1.6-1.2-8.6-1.4-11.2v-.4c-.4-3.7-1-8.4-1.9-14.5-1.3-9.1-3.3-9.1-4.1-9-.5,0-1.8.3-2.1,2.5,0,.5-.2,1.9-.4,4.2-1.4,17.2-2.5,27.2-3.3,30h-4.3c-1,0-1.7.8-2.2,1.5,0,0,0,0,0,0-.1-.1-.3-.3-.4-.4,0,0,0,0,0,0-1.6-1.4-2.9-2.2-3.9-2.2-.2,0-.9,0-2,.9h-3.1c-.5.1-1,.4-1.3.9-.1.2-.3.5-.5.7,0,0,0,0,0,0-.3-.8-.7-2.4-2.3-2.4h-3.2c-.3-.8-.5-2.8-.7-4.4l-.2-1.5c-.5-4.2-1.7-14.4-2.7-20.5-.2-1.5-1.6-9-4.5-9h0c-.8,0-1.7.6-1.9,1.8,0,.5-.3,3.5-.8,9.2-.7,7.8-1.9,21.6-2.5,25.7h-1.3c-1.1,0-1.6.8-2,1.4,0,0,0,0,0,0,0,0-.1,0-.2,0-.1,0-.3-.2-.4-.3-2-2.4-3.1-2.4-3.5-2.4h-3.5c-1.2,0-1.9.9-2.6,1.7,0,.1-.2.2-.2.3-.3.2-.9.4-1.3.4-.1-.1-.3-.4-.4-.6-.5-.8-1.3-1.8-2.5-1.8h-4.6c-.4-1.1-.8-4.2-1-6.1,0-.6-.1-1.2-.2-1.7-.2-2-.5-4.3-.8-6.9-.3-3.1-.7-6.5-1.2-10.4,0-.4-1.3-10.8-4.8-10.8h0c-.8,0-1.8.5-2,2,0,.2,0,1.1-.3,3.7-1.4,17.8-2.3,28.2-2.8,30.9,0,0,0,0,0,0-.2.1-.4.2-.5.2-.7.1-1.2.5-1.6.9-.3-.2-.6-.4-1-.6-.8-.3-1.4-.3-1.9-.2-.3,0-.6,0-1.2,0q-1.3,0-2.3-.7c-2.1-1.4-3.7.9-4.3,1.8,0,0,0,0,0,.1-.5-.7-1.2-1.7-2.5-1.7h-2.7c-.9,0-1.6.7-1.6,1.6s.7,1.6,1.6,1.6Z"/></svg>