<?xml version="1.0" encoding="UTF-8"?><svg id="Layer_2" xmlns="http://www.w3.org/2000/svg" viewBox="0 0 245.5 245.5"><defs><style>.cls-1{fill:rgb(100, 100, 100);}.cls-2{fill:rgb(167, 168, 169);}</style></defs><path class="cls-1" d="m122.8,0C55,0,0,55,0,122.8s55,122.8,122.8,122.8,122.8-55,122.8-122.8S190.6,0,122.8,0Z"/><path class="cls-2" d="m58.5,164.3h128.6c3.8,0,6.9-3.1,6.9-6.9v-84.8c0-3.8-3.1-6.9-6.9-6.9H58.5c-3.8,0-6.9,3.1-6.9,6.9v84.8c0,3.8,3.1,6.9,6.9,6.9Zm-1.8-91.7c0-1,.8-1.8,1.8-1.8h128.6c1,0,1.8.8,1.8,1.8v84.8c0,1-.8,1.8-1.8,1.8H58.5c-1,0-1.8-.8-1.8-1.8v-84.8Z"/><path class="cls-2" d="m192.5,167.3H52.7c-.6,0-10.3,6.9-10.5,7.1h160.8c-.3-.3-10.1-7.1-10.5-7.1Z"/><path class="cls-2" d="m203.6,176.9H41.8s0,0,0,0c0,0,0,1.3,0,2.7s1.2,2.7,2.6,2.7h156.6c1.4,0,2.6-1.2,2.6-2.7s0-2.6,0-2.7Z"/><path class="cls-2" d="m68.8,145.5h3.4v3.4c0,.8.7,1.5,1.5,1.5s1.5-.7,1.5-1.5v-3.4h100.3c.8,0,1.5-.7,1.5-1.5s-.7-1.5-1.5-1.5h-100.3v-58c0-.8-.7-1.5-1.5-1.5s-1.5.7-1.5,1.5v58h-3.4c-.8,0-1.5.7-1.5,1.5s.7,1.5,1.5,1.5Z"/><path class="cls-2" d="m84.3,92.8c1.3,0,2.5-.8,3-1.9,3.8.1,9.5.5,15.1,1.5.3,1.5,1.6,2.7,3.3,2.7s2.1-.5,2.7-1.4c3.7,1.1,7,2.5,9.1,4.5,3.7,3.5,5.3,7.7,6.6,12-.5.6-.9,1.4-.9,2.2,0,1.5,1.1,2.8,2.5,3.2,1.3,4.1,3.1,8,6.8,10.8,2.9,2.2,7.1,3.7,11.7,4.7.4,1.4,1.7,2.4,3.2,2.4s2.1-.5,2.7-1.4c5.4.7,10.7.9,14.6.9s1.1,0,1.6,0c.6.9,1.6,1.6,2.8,1.6,1.8,0,3.3-1.5,3.3-3.3s-1.5-3.3-3.3-3.3-2.6.9-3.1,2.1c-3.9,0-9.7,0-15.5-.8-.4-1.3-1.7-2.3-3.1-2.3s-2,.5-2.6,1.3c-4.1-.9-7.9-2.2-10.4-4.2-3-2.3-4.5-5.6-5.7-9.1.7-.6,1.2-1.5,1.2-2.5,0-1.7-1.3-3.1-3-3.3-1.4-4.4-3.2-9.2-7.4-13.1-2.5-2.4-6.4-4.1-10.7-5.3-.4-1.3-1.7-2.3-3.1-2.3s-1.8.4-2.4,1c-6-1.1-12.1-1.5-16.1-1.7-.6-1-1.6-1.7-2.9-1.7-1.8,0-3.3,1.5-3.3,3.3s1.5,3.3,3.3,3.3Z"/></svg>