<?xml version="1.0" encoding="UTF-8"?><svg id="Layer_2" xmlns="http://www.w3.org/2000/svg" viewBox="0 0 142.7 58.1"><defs><style>.cls-1{fill:#fff;}.cls-2{fill:#19ac8a;}</style></defs><path class="cls-1" d="m102.6,19.5c-2.1,0-4.1.7-5.7,1.9l-1.6,1.2v-7.8h0v-2.7h-2.1v16.8c0,5.2,4.2,9.4,9.4,9.4s9.4-4.2,9.4-9.4-4.2-9.4-9.4-9.4Zm0,16.7c-4,0-7.3-3.3-7.3-7.3s3.3-7.2,7.3-7.2,7.3,3.3,7.3,7.3-3.3,7.3-7.3,7.3Z"/><path class="cls-1" d="m133.3,19.6c-5.2,0-9.4,4.2-9.4,9.4s4.2,9.4,9.4,9.4,9.4-4.2,9.4-9.4-4.2-9.4-9.4-9.4Zm0,16.7c-4,0-7.3-3.3-7.3-7.3s3.3-7.3,7.3-7.3,7.3,3.3,7.3,7.3-3.3,7.3-7.3,7.3Z"/><path class="cls-1" d="m29.1,23.4c2.3,0,4.3,1.4,5.2,3.4l3.3-1.9c-.5-1-1.1-1.8-1.8-2.6-1.7-1.7-4.1-2.8-6.6-2.8s-4.9,1-6.6,2.8c-1.7,1.7-2.8,4.1-2.8,6.6,0,5.2,4.2,9.4,9.4,9.4s4.9-1,6.6-2.8c.8-.7,1.4-1.6,1.8-2.6l-3.3-1.9c-.9,2-2.9,3.5-5.2,3.5s-5.6-2.5-5.6-5.6,2.5-5.6,5.6-5.6Z"/><path class="cls-1" d="m53.4,30.9c0,2.1-1.7,3.8-3.8,3.8s-3.8-1.7-3.8-3.8v-11.2h-3.8v11.2c0,4.2,3.4,7.6,7.6,7.6s7.6-3.4,7.6-7.6v-11.2h-3.8v11.2Z"/><path class="cls-1" d="m61.5,29v9.5h3.8v-9.5c0-3,2.5-5.5,5.5-5.5h2v-3.8h-2c-5.1,0-9.3,4.2-9.3,9.3Z"/><path class="cls-1" d="m79.1,15.9c.5,0,1-.2,1.3-.5.3-.3.5-.8.5-1.3s-.2-1-.5-1.3c-.3-.3-.8-.6-1.3-.6s-1,.2-1.3.6c-.3.3-.6.8-.6,1.3s.2,1,.6,1.3c.3.3.8.5,1.3.5Z"/><rect class="cls-1" x="77.2" y="19.7" width="3.8" height="18.8"/><path class="cls-1" d="m118,12.2c-.4,0-.8.2-1.2.5-.3.3-.5.8-.5,1.2s.2.9.5,1.2c.3.3.7.4,1.2.4s.9-.2,1.2-.4c.3-.3.5-.7.5-1.2s-.2-.9-.5-1.2c-.3-.3-.8-.5-1.2-.5Z"/><polygon class="cls-1" points="116.9 20.7 116.9 37.4 116.9 38.4 119.1 38.4 119.1 37.4 119.1 20.7 119.1 19.6 116.9 19.6 116.9 20.7"/><circle class="cls-2" cx="42" cy="51.6" r="3.3"/><path class="cls-2" d="m30.7,55.6c-.6-1.7.4-3.6,2.1-4.1,1.3-.4,2.3-1.2,3-2.2.3-.4.5-.8.6-1.2.4-1.2.5-2.5,0-3.7-.6-1.7.4-3.6,2.1-4.1,1.7-.6,3.6.4,4.1,2.1.6,1.7-.4,3.6-2.1,4.1-1.3.4-2.3,1.2-3,2.2-.3.4-.5.8-.6,1.2-.4,1.2-.5,2.5,0,3.7s-.4,3.6-2.1,4.1c-1.7.6-3.6-.4-4.1-2.1Z"/><circle class="cls-2" cx="25.4" cy="54.8" r="3.3"/><path class="cls-2" d="m14.1,51c.6-1.7,2.5-2.6,4.2-1.9,1.2.5,2.5.5,3.7,0,.4-.1.9-.3,1.3-.6,1-.6,1.9-1.6,2.4-2.9.6-1.7,2.5-2.6,4.2-1.9,1.7.6,2.6,2.5,1.9,4.2-.6,1.7-2.5,2.6-4.2,1.9-1.2-.5-2.5-.5-3.7,0-.4.1-.9.3-1.3.6-1,.6-1.9,1.6-2.4,2.9-.6,1.7-2.5,2.6-4.2,1.9-1.7-.6-2.6-2.5-1.9-4.2Z"/><circle class="cls-2" cx="10.3" cy="46.9" r="3.3"/><path class="cls-2" d="m3.8,36.9c1.5-.9,3.6-.4,4.5,1.1.7,1.1,1.7,1.9,2.9,2.4.4.2.9.3,1.3.3,1.2.1,2.5,0,3.6-.8,1.5-.9,3.6-.4,4.5,1.1.9,1.5.4,3.6-1.1,4.5-1.5.9-3.6.4-4.5-1.1s-1.7-1.9-2.9-2.4c-.4-.2-.9-.3-1.3-.3-1.2-.1-2.5,0-3.6.8s-3.6.4-4.5-1.1-.4-3.6,1.1-4.5Z"/><circle class="cls-2" cx="3.3" cy="31.4" r="3.3"/><path class="cls-2" d="m4.5,19.5c1.8.2,3.1,1.9,2.8,3.7s.1,2.6.8,3.6c.2.4.5.8.8,1.1.9.9,2,1.5,3.3,1.6s3.1,1.9,2.8,3.7c-.2,1.8-1.9,3.1-3.7,2.8-1.8-.2-3.1-1.9-2.8-3.7s-.1-2.6-.8-3.6c-.2-.4-.5-.8-.8-1.1-.9-.9-2-1.5-3.3-1.6s-3.1-1.9-2.8-3.7,1.9-3.1,3.7-2.8Z"/><circle class="cls-2" cx="7.5" cy="14.8" r="3.3"/><path class="cls-2" d="m15.8,6.2c1.3,1.3,1.2,3.4,0,4.6s-1.5,2.1-1.7,3.3c0,.5,0,.9,0,1.4.1,1.2.7,2.4,1.6,3.4,1.3,1.3,1.2,3.4,0,4.6s-3.4,1.2-4.6,0c-1.3-1.3-1.2-3.4,0-4.6s1.5-2.1,1.7-3.3c0-.5,0-.9,0-1.4-.1-1.2-.7-2.4-1.6-3.4-1.3-1.3-1.2-3.4,0-4.6s3.4-1.2,4.6,0Z"/><circle class="cls-2" cx="21.3" cy="4.4" r="3.3"/><path class="cls-2" d="m33.1,3c.2,1.8-1.1,3.4-2.9,3.6s-2.5.7-3.4,1.5c-.3.3-.6.7-.9,1.1-.7,1-1,2.3-.9,3.6.2,1.8-1.1,3.4-2.9,3.6-1.8.2-3.4-1.1-3.6-2.9-.2-1.8,1.1-3.4,2.9-3.6s2.5-.7,3.4-1.5c.3-.3.6-.7.9-1.1.7-1,1-2.3.9-3.6S27.7.2,29.5,0s3.4,1.1,3.6,2.9Z"/><circle class="cls-2" cx="38.4" cy="5" r="3.3"/><path class="cls-2" d="m48.6,11.2c-1,1.5-3,1.9-4.5.9s-2.4-1-3.6-.9c-.5,0-.9.1-1.4.3-1.2.4-2.2,1.2-2.9,2.3s-3,1.9-4.5.9c-1.5-1-1.9-3-1-4.5,1-1.5,3-1.9,4.5-.9s2.4,1,3.6.9c.5,0,.9-.1,1.4-.3,1.2-.4,2.2-1.2,2.9-2.3,1-1.5,3-1.9,4.5-1s1.9,3,.9,4.5Z"/></svg>