<?xml version="1.0" encoding="UTF-8"?><svg id="Layer_2" xmlns="http://www.w3.org/2000/svg" viewBox="0 0 245.5 245.5"><defs><style>.cls-1{fill:#00263e;}.cls-2{fill:#fff;}</style></defs><path class="cls-1" d="m122.8,0C55,0,0,55,0,122.8s55,122.8,122.8,122.8,122.8-55,122.8-122.8S190.6,0,122.8,0Z"/><path class="cls-2" d="m58.5,164.3h128.6c3.8,0,6.9-3.1,6.9-6.9v-84.8c0-3.8-3.1-6.9-6.9-6.9H58.5c-3.8,0-6.9,3.1-6.9,6.9v84.8c0,3.8,3.1,6.9,6.9,6.9Zm-1.8-91.7c0-1,.8-1.8,1.8-1.8h128.6c1,0,1.8.8,1.8,1.8v84.8c0,1-.8,1.8-1.8,1.8H58.5c-1,0-1.8-.8-1.8-1.8v-84.8Z"/><path class="cls-2" d="m192.5,167.3H52.7c-.6,0-10.3,6.9-10.5,7.1h160.8c-.3-.3-10.1-7.1-10.5-7.1Z"/><path class="cls-2" d="m203.6,176.9H41.8s0,0,0,0c0,0,0,1.3,0,2.7s1.2,2.7,2.6,2.7h156.6c1.4,0,2.6-1.2,2.6-2.7s0-2.6,0-2.7Z"/><path class="cls-2" d="m73.8,150.5c-.8,0-1.5-.7-1.5-1.5v-64.5c0-.8.7-1.5,1.5-1.5s1.5.7,1.5,1.5v64.5c0,.8-.7,1.5-1.5,1.5Z"/><path class="cls-2" d="m175.6,145.5h-106.8c-.8,0-1.5-.7-1.5-1.5s.7-1.5,1.5-1.5h106.8c.8,0,1.5.7,1.5,1.5s-.7,1.5-1.5,1.5Z"/><path class="cls-2" d="m164.7,133.1c-8.7,0-24.7-.8-32.2-6.6-4.7-3.6-6.3-9-7.8-14.1-1.5-5-3-10.1-7.3-14.1-8.2-7.7-34.5-7.4-34.8-7.4h0c-.8,0-1.5-.7-1.5-1.5,0-.8.7-1.5,1.5-1.5,1.1,0,27.8-.3,36.9,8.3,4.9,4.6,6.6,10.4,8.1,15.5,1.4,4.9,2.8,9.5,6.8,12.6,9.5,7.3,35.9,5.8,36.2,5.8.8,0,1.5.6,1.6,1.4,0,.8-.6,1.5-1.4,1.6-.3,0-2.6.1-6,.1Z"/><circle class="cls-2" cx="84.3" cy="89.5" r="2.3"/><path class="cls-2" d="m84.3,92.8c-1.8,0-3.3-1.5-3.3-3.3s1.5-3.3,3.3-3.3,3.3,1.5,3.3,3.3-1.5,3.3-3.3,3.3Zm0-4.6c-.7,0-1.3.6-1.3,1.3s.6,1.3,1.3,1.3,1.3-.6,1.3-1.3-.6-1.3-1.3-1.3Z"/><circle class="cls-2" cx="126.5" cy="112.4" r="2.3"/><path class="cls-2" d="m126.5,115.8c-1.8,0-3.3-1.5-3.3-3.3s1.5-3.3,3.3-3.3,3.3,1.5,3.3,3.3-1.5,3.3-3.3,3.3Zm0-4.6c-.7,0-1.3.6-1.3,1.3s.6,1.3,1.3,1.3,1.3-.6,1.3-1.3-.6-1.3-1.3-1.3Z"/><circle class="cls-2" cx="105.6" cy="91.8" r="2.3"/><path class="cls-2" d="m105.6,95.2c-1.8,0-3.3-1.5-3.3-3.3s1.5-3.3,3.3-3.3,3.3,1.5,3.3,3.3-1.5,3.3-3.3,3.3Zm0-4.6c-.7,0-1.3.6-1.3,1.3s.6,1.3,1.3,1.3,1.3-.6,1.3-1.3-.6-1.3-1.3-1.3Z"/><circle class="cls-2" cx="147.4" cy="130.3" r="2.3"/><path class="cls-2" d="m147.4,133.6c-1.8,0-3.3-1.5-3.3-3.3s1.5-3.3,3.3-3.3,3.3,1.5,3.3,3.3-1.5,3.3-3.3,3.3Zm0-4.6c-.7,0-1.3.6-1.3,1.3s.6,1.3,1.3,1.3,1.3-.6,1.3-1.3-.6-1.3-1.3-1.3Z"/><circle class="cls-2" cx="169.1" cy="131.3" r="2.3"/><path class="cls-2" d="m169.1,134.6c-1.8,0-3.3-1.5-3.3-3.3s1.5-3.3,3.3-3.3,3.3,1.5,3.3,3.3-1.5,3.3-3.3,3.3Zm0-4.6c-.7,0-1.3.6-1.3,1.3s.6,1.3,1.3,1.3,1.3-.6,1.3-1.3-.6-1.3-1.3-1.3Z"/></svg>