<?xml version="1.0" encoding="UTF-8"?><svg id="Layer_2" xmlns="http://www.w3.org/2000/svg" xmlns:xlink="http://www.w3.org/1999/xlink" viewBox="0 0 245.5 245.5"><defs><style>.cls-1{fill:url(#linear-gradient);}.cls-2{fill:#ececed;}</style><linearGradient id="linear-gradient" x1="36" y1="209.6" x2="235.9" y2="9.7" gradientUnits="userSpaceOnUse"><stop offset=".2" stop-color="#00263e"/><stop offset=".3" stop-color="#002a40"/><stop offset=".5" stop-color="#033647"/><stop offset=".6" stop-color="#064a52"/><stop offset=".7" stop-color="#0c6763"/><stop offset=".9" stop-color="#138c78"/><stop offset="1" stop-color="#19ac8a"/></linearGradient></defs><path class="cls-1" d="m122.8,0C55,0,0,55,0,122.8s55,122.8,122.8,122.8,122.8-55,122.8-122.8S190.6,0,122.8,0Z"/><path class="cls-2" d="m82.4,126.6c-2-.1-3.5-1.7-3.7-3.6-.2-1.8.8-3.5,2.4-4.2.8-.3,1.1-1.2.8-2-.3-.8-1.2-1.1-2-.8-2.8,1.2-4.5,4.2-4.2,7.2.4,3.4,3.1,6,6.5,6.3,0,0,0,0,.1,0,.8,0,1.4-.6,1.5-1.4,0-.8-.6-1.5-1.4-1.6Z"/><path class="cls-2" d="m110.9,167c-.8,0-1.5.7-1.4,1.6,0,1.2-.8,2.2-1.9,2.5-1.1.2-2.1-.2-2.7-1.2-.4-.7-1.3-1-2-.5-.7.4-1,1.3-.5,2,1,1.7,2.8,2.7,4.7,2.7s.8,0,1.2-.1c2.6-.6,4.4-2.9,4.3-5.6,0-.8-.7-1.5-1.6-1.4Z"/><path class="cls-2" d="m105.8,150.4c1.4-3.2.3-6.9-2.6-8.8,0,0-.2-.1-.2-.2-2.3-1.5-3.3-4.4-2.3-7,.6-1.4,1.6-2.5,3-3.2,1.4-.6,3-.6,4.4,0,.4.1.7.3,1,.5.7.5,1.6.3,2.1-.4s.3-1.6-.4-2.1c-.5-.3-1-.6-1.6-.8-2.2-.9-4.5-.8-6.7.1-2.1.9-3.8,2.6-4.6,4.8-1.5,3.9,0,8.3,3.4,10.6,0,0,.1.1.2.1,1.7,1.1,2.3,3.3,1.5,5.2-.4,1-1.3,1.8-2.3,2.3-1,.4-2.2.4-3.2,0-.3-.1-.5-.3-.8-.4-.7-.5-1.6-.3-2.1.4-.5.7-.3,1.6.4,2.1.4.3.8.5,1.3.7.9.4,1.9.6,2.8.6,2.8,0,5.5-1.6,6.7-4.4Z"/><path class="cls-2" d="m103.9,73.8c-.7.4-1.1,1.3-.7,2,.4.7,1.3,1.1,2,.7,1.8-.9,3.9-.3,5,1.2,1.1,1.4,1.1,3.4,0,4.8-.5.7-.3,1.6.3,2.1.3.2.6.3.9.3.5,0,.9-.2,1.2-.6,1.8-2.5,1.8-5.9,0-8.4-2-2.7-5.7-3.7-8.8-2.2Z"/><path class="cls-2" d="m159.3,67.5c-.8-1.4-1.6-2.7-2.3-3.9-1.3-2.1-3.7-4.2-6.4-4.2h-25.3c-.2,0-.4,0-.6,0v-4.7c0-1.4-1.1-2.5-2.5-2.5s-2.5,1.1-2.5,2.5v8.5c-5.9-5.9-15.2-7.5-23-3.4-6,3.2-9.7,9-10.3,15.4-5.9-.7-11.6,2.4-14.3,7.8-2.6,5.3-1.6,11.5,2.2,15.7-7.5,4.6-12.6,12.9-12.6,22.4s5.9,19.3,14.7,23.6c-3.4,4.6-4.1,10.6-1.6,15.9,2.1,4.5,6.1,7.6,10.7,8.6.7,8.8,6.8,16,15.3,18.2,1.6.4,3.3.6,4.9.6,5.2,0,10.1-2,13.8-5.4v8.2c0,1.4,1.1,2.5,2.5,2.5s2.5-1.1,2.5-2.5v-4.7c.2,0,.4,0,.6,0h25.3c2.7,0,5.2-2.2,6.4-4.3.6-1,1.2-2.1,1.9-3.3,9.3-15.8,24.8-42.4,24.8-56.7s-15.3-39.2-24.4-54.4Zm-57.2,115c-6.2-1.5-10.7-6.7-11.5-13,.8,0,1.6-.2,2.3-.4,1.3-.3,2.1-1.7,1.8-3.1-.3-1.3-1.7-2.1-3.1-1.8-5,1.3-10.1-1.1-12.3-5.8-1.9-4.1-1.1-8.8,2.1-12,.6.2,1.2.3,1.8.4.2,0,.3,0,.5,0,1.2,0,2.2-.8,2.5-2,.2-1.4-.6-2.7-2-2.9-10.1-1.9-17.4-10.7-17.4-21s9.6-21.3,21.3-21.3,2.2.1,3.3.3c-.3.9-.4,1.9-.5,2.9,0,3.5,1.5,6.8,4.2,8.9-2,1.2-3.4,3.3-3.5,5.7,0,.8.6,1.5,1.4,1.6,0,0,0,0,0,0,.8,0,1.5-.6,1.5-1.4.1-2,1.6-3.6,3.5-3.8,1.8-.2,3.5.7,4.2,2.3.3.8,1.2,1.1,2,.7.8-.3,1.1-1.2.7-2-.9-1.9-2.5-3.2-4.4-3.8-.1,0-.3-.1-.5-.2-3.7-.8-6.4-4.1-6.3-7.9.1-4.4,3.7-7.8,8.1-7.7.5,0,1.1,0,1.6.2.8.2,1.6-.3,1.8-1.1.2-.8-.3-1.6-1.1-1.8-.7-.2-1.5-.3-2.2-.3,0,0-.2,0-.3,0-3,0-5.8,1.2-7.7,3.2-.2-.1-.4-.2-.7-.2-1.7-.4-3.5-.5-5.3-.5-3.1,0-6.1.6-8.9,1.6-3.4-2.6-4.5-7.3-2.6-11.1,1.8-3.6,5.6-5.6,9.5-5,.1,0,.3,0,.4,0,.1.9.3,1.8.6,2.7.3,1.1,1.3,1.8,2.4,1.8s.5,0,.8-.1c1.3-.4,2-1.8,1.6-3.1-2.1-6.7.9-14,7.1-17.2,7.1-3.8,16-1,19.7,6.1.4.7.7,1.5.9,2.2v101.8c-3.1,6.6-10.4,10.1-17.5,8.3Zm52.5-6.5c-.7,1.2-1.3,2.3-1.9,3.3-.6,1-1.7,1.8-2.1,1.8h-25.3c-.3,0-.5-.2-.5-.5v-19.3h10.6c.7,2.9,3.3,5.1,6.4,5.1s6.6-2.9,6.6-6.6-2.9-6.6-6.6-6.6-5.7,2.2-6.4,5.1h-10.6v-15.3h28.8c.7,2.9,3.3,5.1,6.4,5.1s6.6-2.9,6.6-6.6-2.9-6.6-6.6-6.6-5.7,2.2-6.4,5.1h-28.8v-15.3h18.4c.7,2.9,3.3,5.1,6.4,5.1s6.6-2.9,6.6-6.6-2.9-6.6-6.6-6.6-5.7,2.2-6.4,5.1h-18.4v-15.3h28.8c.7,2.9,3.3,5.1,6.4,5.1s6.6-2.9,6.6-6.6-2.9-6.6-6.6-6.6-5.7,2.2-6.4,5.1h-28.8v-15.3h10.6c.7,2.9,3.3,5.1,6.4,5.1s6.6-2.9,6.6-6.6-2.9-6.6-6.6-6.6-5.7,2.2-6.4,5.1h-10.6v-20.3c0-.3.2-.5.5-.5h25.3c.4,0,1.5.8,2.1,1.8.7,1.2,1.5,2.5,2.3,3.9,8.3,13.8,23.7,39.5,23.7,51.8s-15.7,39.7-24.1,54.1Zm-16.5-16.4c0-1.9,1.6-3.4,3.5-3.4s3.6,1.6,3.6,3.6-1.6,3.6-3.6,3.6-3.5-1.5-3.5-3.4c0,0,0,0,0-.1s0,0,0-.1Zm18.3-18.3c0-1.9,1.6-3.4,3.5-3.4s3.6,1.6,3.6,3.6-1.6,3.6-3.6,3.6-3.5-1.5-3.5-3.4c0,0,0,0,0-.1s0,0,0-.1Zm-10.4-18.3c0-1.9,1.6-3.4,3.5-3.4s3.6,1.6,3.6,3.6-1.6,3.6-3.6,3.6-3.5-1.5-3.5-3.4c0,0,0,0,0-.1s0,0,0-.1Zm10.4-18.3c0-1.9,1.6-3.4,3.5-3.4s3.6,1.6,3.6,3.6-1.6,3.6-3.6,3.6-3.5-1.5-3.5-3.4c0,0,0,0,0-.1s0,0,0-.1Zm-18.3-18.3c0-1.9,1.6-3.4,3.5-3.4s3.6,1.6,3.6,3.6-1.6,3.6-3.6,3.6-3.5-1.5-3.5-3.4c0,0,0,0,0-.1s0,0,0-.1Z"/></svg>