<?xml version="1.0" encoding="utf-8"?>
<!-- Generator: Adobe Illustrator 26.3.1, SVG Export Plug-In . SVG Version: 6.00 Build 0)  -->
<svg version="1.1" id="Layer_1" xmlns="http://www.w3.org/2000/svg" xmlns:xlink="http://www.w3.org/1999/xlink" x="0px" y="0px"
	 viewBox="0 0 248.6 307.6" style="enable-background:new 0 0 248.6 307.6;" xml:space="preserve">
<style type="text/css">
	.st0{fill:#19AC8A;}
</style>
<g>
	<g>
		<g>
			<circle class="st0" cx="230.3" cy="265.9" r="17.3"/>
			<path class="st0" d="M172.7,291.9c-3.7-8.8,0.5-19,9.3-22.7c6.4-2.7,11.5-7.4,14.6-13.1c1.2-2.1,2.1-4.4,2.8-6.7
				c1.7-6.3,1.4-13.1-1.3-19.6c-3.7-8.8,0.5-19,9.3-22.6c8.8-3.7,19,0.5,22.7,9.2c3.7,8.8-0.5,19-9.3,22.7
				c-6.4,2.7-11.5,7.4-14.6,13.1c-1.2,2.1-2.1,4.4-2.8,6.8c-1.7,6.3-1.4,13.1,1.3,19.6c3.7,8.8-0.5,19-9.2,22.7
				C186.6,304.9,176.4,300.7,172.7,291.9z"/>
		</g>
		<g>
			<circle class="st0" cx="144.6" cy="290.3" r="17.3"/>
			<path class="st0" d="M83.2,275.3c2.5-9.2,12-14.7,21.3-12.2c6.7,1.8,13.6,1.2,19.6-1.3c2.3-0.9,4.4-2.1,6.3-3.6
				c5.2-3.9,9.2-9.5,11.1-16.2c2.5-9.2,12-14.7,21.2-12.1c9.2,2.5,14.7,12,12.2,21.2c-2.5,9.2-12,14.7-21.3,12.2
				c-6.7-1.8-13.6-1.2-19.6,1.3c-2.3,0.9-4.4,2.1-6.4,3.6c-5.2,3.9-9.2,9.5-11.1,16.2c-2.5,9.2-12,14.7-21.2,12.2
				C86.1,294,80.7,284.5,83.2,275.3z"/>
		</g>
		<g>
			<circle class="st0" cx="61.1" cy="255.8" r="17.3"/>
			<path class="st0" d="M22.4,205.9c7.7-5.6,18.6-4,24.2,3.7c4.1,5.6,9.9,9.4,16.1,11.2c2.3,0.7,4.8,1,7.2,1.1
				c6.5,0.2,13.1-1.7,18.8-5.8c7.7-5.6,18.5-4,24.2,3.7c5.6,7.7,4,18.6-3.7,24.2c-7.7,5.6-18.6,4-24.2-3.7
				c-4.1-5.6-9.9-9.4-16.1-11.2c-2.3-0.7-4.8-1-7.2-1.1c-6.5-0.2-13.1,1.7-18.8,5.8c-7.7,5.6-18.6,4-24.2-3.7
				C13.1,222.4,14.7,211.5,22.4,205.9z"/>
		</g>
		<g>
			<circle class="st0" cx="17.3" cy="177.2" r="17.3"/>
			<path class="st0" d="M18,114c9.5,0.4,17,8.4,16.6,18c-0.3,7,1.9,13.5,5.7,18.8c1.4,2,3.1,3.8,5,5.4c4.9,4.2,11.3,6.8,18.3,7.1
				c9.5,0.4,17,8.4,16.6,17.9c-0.4,9.5-8.4,17-17.9,16.6c-9.5-0.4-17-8.4-16.6-18c0.3-7-1.9-13.5-5.7-18.8c-1.4-2-3.1-3.8-4.9-5.4
				c-4.9-4.2-11.3-6.8-18.3-7.1c-9.5-0.4-17-8.4-16.6-17.9C0.4,121.1,8.5,113.6,18,114z"/>
		</g>
		<g>
			<circle class="st0" cx="32" cy="88.1" r="17.3"/>
			<path class="st0" d="M71.9,39.2c7.2,6.2,8.1,17.2,1.9,24.4c-4.6,5.3-6.9,11.7-7.2,18.2c-0.1,2.4,0.1,4.9,0.5,7.3
				c1.3,6.4,4.6,12.4,9.9,17c7.2,6.2,8.1,17.2,1.8,24.4c-6.2,7.2-17.2,8.1-24.4,1.9c-7.2-6.2-8.1-17.2-1.9-24.4
				c4.6-5.3,6.9-11.7,7.2-18.2c0.1-2.4-0.1-4.9-0.5-7.3C58,76,54.6,70,49.3,65.4c-7.2-6.2-8.1-17.2-1.9-24.4
				C53.7,33.8,64.6,32.9,71.9,39.2z"/>
		</g>
		<g>
			<circle class="st0" cx="99.5" cy="27.3" r="17.3"/>
			<path class="st0" d="M161.3,14.1c1.7,9.4-4.5,18.4-13.9,20.2c-6.9,1.3-12.8,4.8-17.1,9.7c-1.6,1.8-3,3.8-4.1,6
				c-3,5.8-4.2,12.5-2.9,19.4c1.7,9.4-4.5,18.4-13.8,20.2c-9.4,1.7-18.4-4.5-20.2-13.8c-1.7-9.4,4.5-18.4,13.9-20.2
				c6.9-1.3,12.8-4.8,17.1-9.7c1.6-1.8,3-3.8,4.1-6c3-5.8,4.2-12.5,2.9-19.4c-1.7-9.4,4.5-18.4,13.8-20.2
				C150.4-1.5,159.5,4.8,161.3,14.1z"/>
		</g>
		<g>
			<circle class="st0" cx="190.1" cy="22.2" r="17.3"/>
			<path class="st0" d="M246.6,50.6c-4.5,8.4-15,11.6-23.4,7.1c-6.2-3.3-13-4.3-19.4-3.1c-2.4,0.4-4.7,1.1-7,2.1
				c-6,2.6-11.1,7.1-14.4,13.3c-4.5,8.4-15,11.6-23.4,7.1c-8.4-4.5-11.6-15-7.1-23.4c4.5-8.4,15-11.6,23.4-7.1
				c6.2,3.3,13,4.3,19.4,3.1c2.4-0.4,4.7-1.1,7-2.1c5.9-2.6,11.1-7.2,14.4-13.3c4.5-8.4,15-11.6,23.4-7.1
				C247.9,31.7,251.1,42.2,246.6,50.6z"/>
		</g>
	</g>
</g>
</svg>
