<?xml version="1.0" encoding="UTF-8"?><svg id="Layer_2" xmlns="http://www.w3.org/2000/svg" viewBox="0 0 245.5 245.5"><defs><style>.cls-1{fill:#1c1c1c;}</style></defs><path class="cls-1" d="m122.8,0C55,0,0,55,0,122.8s55,122.8,122.8,122.8,122.8-55,122.8-122.8S190.6,0,122.8,0Z"/><path d="m74.7,73.5c-14.3,12.2-20.9,30.7-20.9,49.5,0,38.1,31,69.1,69.1,69.1,26.5,0,50.3-14.8,62-38.6,4.7-9.5,7.1-19.8,7.1-30.5,0-11.3-2.8-22.4-8-32.3-.6-1.2-2.2-1.7-3.4-1-1.2.6-1.6,2-1.1,3.2,0,.1,0,.3,0,.4,1.7,8.2-3.3,15.9-11.3,17.5-8.1,1.6-16.3-3.7-17.9-11.7,0-.2-.1-.4-.2-.6-.6-3.3-1.6-6.5-2.9-9.6-5.3-12.7-16.9-22.2-31.1-25.7-14.5-3.5-30.5,1-41.4,10.3Zm26.8-6.4s0,0,0,0c3.5-.3,6.9.7,9.6,2.9,2.7,2.2,4.4,5.3,4.7,8.8.3,3.5-.8,7-3.1,9.8-1.7,2.1-4,3.6-6.5,4.4-4.2.5-8,2.1-11,4.8-2.2,2-3.9,4.5-5.2,7.4-.5-1.2-1.1-2.5-1.9-3.6-2.6-3.8-6.5-6.4-10.9-7.3-4.8-1-9.5.3-13.2,3.1,2.9-7,9.4-16.5,14.1-20.3,6.4-5.2,15-9.2,23.3-10Zm37.4,63.4c-.5.8-1.1,1.5-1.7,2.1-1.2,1.2-2.8,2-4.4,2.3-2.2.4-4.4-.1-6.2-1.4-3.8-2.8-4.7-8.2-2-12,0,0,.1-.2.2-.3,2.4-2.3,3.9-5.6,4.2-9.4,0-1.3,0-2.7-.2-4,.9.5,1.8.9,2.7,1.1,3.3.9,6.7.6,9.6-1,1.9-1,3.5-2.6,4.6-4.4.8,9.7-1.5,19.5-6.8,26.9Zm-28.8-32.7c12.3.8,13.8,9.1,13.9,12.5-1.7-3-4.9-5-8.5-5-1.7,0-3.3.4-4.7,1.2-.1,0-.2,0-.4.1-2.3,1.4-5.2.7-6.5-1.6-.7-1.1-.8-2.4-.5-3.7.3-1.3,1.1-2.4,2.2-3,.2-.1.3-.2.4-.4,1.6-.3,3.1-.3,4.1-.2Zm5.4,22.2c-2.7,0-4.8-2.2-4.8-4.8s2.2-4.8,4.8-4.8,4.8,2.2,4.8,4.8-2.2,4.8-4.8,4.8Zm.2,21.8c-4.8-.3-10.7-2.3-15.3-6.3-1.4-2.2-1.7-5-.5-7.6.9-1.9,2.6-3.4,4.6-4.2,2.1-.8,4.3-.7,6.2.2.2,0,.4.1.6.1,1.3.6,2.7.9,4.2.9,1.7,0,3.3-.3,4.8-.9-.2.7-.2,1.5-.2,2.3s0,1.3.2,2c.5,3.1,2.2,5.7,4.6,7.5,1.8,1.3,4,2.1,6.2,2.1-4.5,2.8-9.8,4.1-15.4,3.7Zm-19.5-11.3c-2.2-3.5-3.6-8-3.4-13.5.3-7.1,2.2-12.3,5.9-15.6.6-.6,1.3-1,1.9-1.5,0,.2-.1.4-.2.7-.2.7-.2,1.3-.2,2,0,1.4.4,2.8,1.1,4,1.2,2.1,3.4,3.4,5.7,3.7-.8,1.4-1.3,3.1-1.3,4.9s.5,3.5,1.4,5c-1.2,0-2.4.3-3.6.7-2.8,1-5.1,3.1-6.3,5.7-.6,1.3-.9,2.6-1,3.9Zm46.4-39.7c.8,1.8,1.4,3.6,1.9,5.5.1,1.2,0,2.3-.3,3.5-.7,2.4-2.3,4.4-4.4,5.5-2.2,1.2-4.8,1.5-7.3.8-2.5-.7-4.5-2.3-5.7-4.5,0,0-.1-.2-.2-.3-2.6-4.1-7.1-7.4-14-8.3,4.3-3.4,6.9-8.8,6.4-14.5-.4-4.3-2.4-8.1-5.7-10.8.6.1,1.2.2,1.8.4,12.4,3,23,11.7,27.6,22.8Zm44.5,32.2c0,8.9-1.8,17.5-5.3,25.5,0,0,0,.1-.1.2-5,10.5-16.9,14.8-27.1,9.9-9.9-4.7-14.5-16.6-10.6-26.5,4.7-7.2,7.2-16,7.1-25,4.2,5.1,11,8,17.9,6.6,7.2-1.5,12.5-7.3,13.8-14.3,2.9,7.5,4.5,15.5,4.5,23.6Zm-57,63.7c-2.5,0-5-.6-7.4-1.6-5.1-2.1-9-6.1-11-11.3-2-5.2-1.9-10.9.3-16.2,2.2-5.3,6.3-9.3,11.4-11.3,6.1-1.1,11.6-4.1,16.2-8.8,0,.6,0,1.3,0,1.9,0,2.8.5,5.6,1.5,8.3,2.2,6.1,6.6,10.9,12.3,13.6,7.3,3.5,15.5,2.7,22-1.2-10.6,14.9-26.8,24.5-45.1,26.6Zm-57.7-24.3c-1.7-2.7-2.6-5.7-2.6-8.9,0-4.5,1.7-8.8,4.9-12,5.9-5.9,15.4-6.7,22.1-2.3,4.3,4.1,10.3,7,18.5,7.6.4,0,.9,0,1.3,0-3.2,2.5-5.7,5.7-7.4,9.6-1.3,3.1-2,6.4-2,9.7s.6,6,1.7,8.8c2.1,5.3,5.9,9.5,10.8,12.1-19.2-1-36.2-10.4-47.3-24.6Zm-13.6-39.4c0-4.9.6-9.6,1.6-14.3.1-.2.2-.3.2-.5,1.5-7.7,8.6-12.5,16.1-11,3.7.7,6.9,2.9,9,6.1,1.9,2.8,2.7,5.9,2.4,9.1-.2,1.5-.4,3-.4,4.6-.2,5.2,1.2,11.6,4.8,17.2-6.9-1.8-14.6,0-20,5.3-3.7,3.7-5.8,8.7-5.8,13.9,0,0,0,.2,0,.3,0,.1,0,.3,0,.4-5.1-9.2-8-19.7-8-30.9Z"/></svg>